<?xml version="1.0" encoding="utf-8"?>
<!-- Generator: Adobe Illustrator 22.0.2, SVG Export Plug-In . SVG Version: 6.00 Build 0)  -->
<svg version="1.1" id="Layer_1" xmlns="http://www.w3.org/2000/svg" xmlns:xlink="http://www.w3.org/1999/xlink" x="0px" y="0px"
	 viewBox="0 0 50 50" style="enable-background:new 0 0 50 50;" xml:space="preserve">
<style type="text/css">
	.st0{fill:#FFFFFF;}
	.st1{fill:none;}
</style>
<g>
	<circle class="st0" cx="25" cy="25" r="22.8"/>
	<path d="M25,2.5c12.4,0,22.5,10.1,22.5,22.5S37.4,47.5,25,47.5S2.5,37.4,2.5,25S12.6,2.5,25,2.5 M25,2C12.3,2,2,12.3,2,25
		s10.3,23,23,23s23-10.3,23-23S37.7,2,25,2L25,2z"/>
</g>
<g>
	<rect x="10.2" y="10.3" class="st1" width="28.2" height="27.2"/>
	<path d="M21.9,35.9v-15h-2.4v-2.4h2.4v-0.8c0-2.4,0.5-4.7,2-6.1c1.2-1.2,2.8-1.6,4.2-1.6c1.1,0,2.1,0.3,2.7,0.5l-0.4,2.4
		c-0.5-0.2-1.1-0.4-2-0.4c-2.7,0-3.4,2.4-3.4,5v0.9h4.2v2.4h-4.2v15H21.9z"/>
</g>
</svg>
