<?xml version="1.0" encoding="utf-8"?>
<!-- Generator: Adobe Illustrator 22.0.2, SVG Export Plug-In . SVG Version: 6.00 Build 0)  -->
<svg version="1.1" id="Layer_1" xmlns="http://www.w3.org/2000/svg" xmlns:xlink="http://www.w3.org/1999/xlink" x="0px" y="0px"
	 viewBox="0 0 10 10" style="enable-background:new 0 0 10 10;" xml:space="preserve">
<style type="text/css">
	.st0{fill:#FFFFFF;}
	.st1{fill:none;}
</style>
<g>
	<path class="st0" d="M5,9.9C2.3,9.9,0.1,7.7,0.1,5c0-2.7,2.2-4.9,4.9-4.9c2.7,0,4.9,2.2,4.9,4.9C9.9,7.7,7.7,9.9,5,9.9z"/>
	<path d="M5,0.2c2.6,0,4.8,2.2,4.8,4.8S7.6,9.8,5,9.8S0.2,7.6,0.2,5S2.4,0.2,5,0.2 M5,0C2.2,0,0,2.2,0,5s2.2,5,5,5s5-2.2,5-5
		S7.8,0,5,0L5,0z"/>
</g>
<g>
	<rect x="1.6" y="1.7" class="st1" width="6.8" height="6.7"/>
	<path d="M4.1,4.5c0,0-0.1,0-0.2,0c-0.1,0-0.2,0-0.3-0.1c-0.1,0-0.2-0.1-0.2-0.1c-0.1,0-0.1-0.1-0.1-0.2c0,0,0-0.1,0-0.1
		S3.4,4,3.4,3.9c0.1,0,0.2,0,0.3,0c0.1,0,0.2,0,0.3,0c0,0,0.1,0,0.2,0c0.1,0,0.1,0,0.2,0c0-0.2,0-0.4,0-0.6c0-0.2,0-0.4,0-0.5
		c0-0.2,0-0.4,0.1-0.6C4.5,2,4.6,1.9,4.7,1.8S4.9,1.6,5,1.5c0.1-0.1,0.3-0.1,0.5-0.1c0.1,0,0.2,0,0.3,0c0.1,0,0.2,0,0.2,0.1
		s0.1,0.1,0.2,0.1c0.1,0,0.1,0.1,0.1,0.1c0,0.1,0,0.1,0,0.2C6.2,1.9,6.2,2,6.1,2C6.1,2.1,6,2.1,5.9,2.1s-0.2,0-0.3,0
		c-0.1,0-0.1,0-0.2,0.1c0,0-0.1,0.1-0.1,0.1S5.3,2.4,5.2,2.5c0,0.1,0,0.2,0,0.4c0,0.1,0,0.2,0,0.4c0,0.2,0,0.3,0,0.4
		c0.2,0,0.4-0.1,0.6-0.1c0.2,0,0.3,0,0.5-0.1c0,0,0.1,0,0.1,0c0.1,0,0.1,0.1,0.2,0.1c0.1,0,0.1,0.1,0.1,0.1s0.1,0.1,0.1,0.1
		c0,0,0,0.1-0.1,0.1S6.7,4.1,6.6,4.2c-0.1,0-0.1,0.1-0.2,0.1c-0.1,0-0.1,0-0.2,0c-0.2,0-0.3,0-0.5,0c-0.2,0-0.3,0-0.5,0.1
		c0,0.5,0,1,0.1,1.5c0,0.5,0,0.9,0,1.4c0,0.1,0,0.1,0,0.3c0,0.1,0,0.2,0,0.3c0,0.1-0.1,0.2-0.1,0.4c0,0.1-0.1,0.2-0.1,0.3
		c0,0-0.1,0.1-0.1,0.2C4.8,8.8,4.8,8.8,4.7,8.9C4.6,8.9,4.6,9,4.5,9C4.5,9,4.4,9,4.3,9c0,0,0-0.1,0-0.1c0-0.1,0-0.1,0-0.2
		c0-0.1,0-0.1,0-0.2c0-0.1,0-0.1,0-0.1c0-0.1,0-0.2,0-0.3c0-0.1,0-0.2,0-0.3c0-0.1,0-0.2,0-0.3s0-0.2,0-0.2c0-0.3,0-0.6,0-1.1
		c0-0.5,0-1.1-0.1-1.7H4.1z"/>
</g>
<g>
</g>
<g>
</g>
<g>
</g>
<g>
</g>
<g>
</g>
<g>
</g>
<g>
</g>
<g>
</g>
<g>
</g>
<g>
</g>
<g>
</g>
<g>
</g>
<g>
</g>
<g>
</g>
<g>
</g>
</svg>
